<?xml version="1.0" standalone="no"?>
<!DOCTYPE svg PUBLIC "-//W3C//DTD SVG 20010904//EN"
 "http://www.w3.org/TR/2001/REC-SVG-20010904/DTD/svg10.dtd">
<svg version="1.0" xmlns="http://www.w3.org/2000/svg"
 width="500.000000pt" height="500.000000pt" viewBox="0 0 500.000000 500.000000"
 preserveAspectRatio="xMidYMid meet">
<metadata>
Created by potrace 1.13, written by Peter Selinger 2001-2015
</metadata>
<g transform="translate(0.000000,500.000000) scale(0.100000,-0.100000)"
fill="#000000" stroke="none">
<path d="M1010 2635 c0 -1678 0 -1685 20 -1685 15 0 20 -7 20 -25 0 -50 30
-65 129 -65 49 0 101 4 115 10 25 9 26 13 26 80 0 39 5 80 10 91 11 19 35 19
1255 19 l1245 0 0 -55 c0 -52 1 -55 25 -55 22 0 25 -4 25 -35 0 -29 5 -37 26
-45 34 -13 190 -13 215 0 19 11 19 40 19 1686 l0 1674 -25 10 c-20 8 -25 16
-25 45 l0 35 -1540 0 -1540 0 0 -1685z m2820 55 l0 -1300 -187 1 c-104 0 -183
2 -178 4 6 2 22 6 38 9 36 8 103 70 127 115 33 67 98 350 115 507 7 57 6 62
-19 81 -15 12 -26 31 -26 45 0 21 -13 30 -107 71 -60 26 -111 47 -115 47 -5 0
-8 -15 -8 -32 0 -46 -25 -201 -51 -326 -15 -69 -27 -106 -37 -110 -23 -9 -92
75 -136 167 l-39 79 81 134 c159 266 393 769 376 811 -3 8 -16 20 -29 27 -18
10 -23 19 -19 35 5 20 -7 29 -97 79 -56 31 -105 56 -108 56 -3 0 -24 -46 -45
-103 -50 -131 -152 -353 -223 -486 -50 -92 -57 -102 -65 -82 -14 39 -57 359
-74 550 -15 176 -15 185 2 198 14 10 95 13 369 13 260 0 354 3 363 12 8 8 12
46 12 104 0 100 -5 124 -26 124 -16 0 -34 31 -34 59 0 19 -6 21 -55 21 l-55 0
-37 61 c-81 129 -154 236 -190 277 l-38 42 -118 -61 -118 -60 35 -40 c20 -21
36 -45 36 -52 0 -7 15 -31 33 -53 18 -21 45 -56 60 -76 l28 -38 -140 0 -141 0
0 134 c0 142 -4 166 -26 166 -18 0 -37 37 -31 61 5 18 -2 19 -126 19 l-132 0
3 -190 3 -190 -641 0 -640 0 0 -120 c0 -113 1 -120 20 -120 15 0 20 -7 20 -27
0 -61 -38 -58 635 -61 575 -2 615 -4 615 -20 0 -46 32 -359 50 -482 24 -171
63 -365 97 -479 14 -47 28 -95 30 -106 5 -21 -78 -125 -171 -215 l-46 -44 -1
69 c-2 101 -10 129 -37 133 -18 3 -22 10 -22 43 0 21 -5 39 -11 39 -11 0
-1192 -248 -1221 -256 -14 -4 -9 -20 34 -112 27 -59 53 -109 57 -112 5 -3 14
-18 22 -34 8 -16 22 -34 31 -40 13 -8 147 19 553 108 294 66 537 117 540 115
6 -6 -127 -118 -248 -209 l-98 -73 28 -23 c15 -13 32 -23 37 -24 4 0 6 -9 3
-20 -6 -25 5 -38 82 -94 l63 -46 -571 0 -571 0 0 1288 c0 988 3 1291 12 1300
9 9 302 12 1255 12 l1243 0 0 -1300z m-770 -922 c39 -72 129 -196 187 -258 57
-62 104 -96 151 -110 15 -5 -163 -9 -408 -9 -363 -1 -432 1 -420 12 8 8 51 42
95 77 44 35 139 123 210 196 72 73 137 133 146 133 8 1 26 -18 39 -41z"/>
<path d="M1510 2725 l0 -415 25 0 c22 0 25 -4 25 -35 0 -29 5 -37 28 -46 36
-15 982 -3 997 12 11 11 20 745 10 787 -3 12 -17 28 -30 34 -19 9 -25 19 -25
45 l0 33 -515 0 -515 0 0 -415z m784 89 c3 -9 6 -76 6 -150 l0 -134 -245 0
-245 0 0 131 c0 72 5 139 10 150 10 18 24 19 239 19 199 0 230 -2 235 -16z"/>
</g>
</svg>
